{"title":"Policewala Gunda 3 (2015) Hindi Dubbed 480p x264 670MB TeamTolly","uid":12334397,"size":701355132,"categoryP":"video","categoryS":"movies","magnet":"?xt=urn:btih:63e522bbf43d499cf70b3174913c45fb2b5579d0&amp;dn=Policewala+Gunda+3+%282015%29+Hindi+Dubbed+480p+x264+670MB+TeamTolly&amp;tr=udp%3A%2F%2Ftracker.openbittorrent.com%3A80&amp;tr=udp%3A%2F%2Fopen.demonii.com%3A1337&amp;tr=udp%3A%2F%2Ftracker.coppersurfer.tk%3A6969&amp;tr=udp%3A%2F%2Fexodus.desync.com%3A6969","seeders":0,"leechers":1,"uploader":"jigarsonani","files":1,"time":1441222906,"description":"[center]\n[img]http://s25.postimg.org/e6zvklzhb/Team_Tolly.jpg[/img]\n\n[img]http://s25.postimg.org/u3wbgtqsf/Policewala_Gunda_3.jpg[/img]\n\n\n\n[center][color=red][size=5][font=&quot;Comic Sans MS&quot;]Movie Info:[/font][/size][/color]\n\nThe movie story deals with Aarusaamy a Deputy Commissioner of Police of Tirunelveli who efficiently brings the city under control. Aarusaamy arrives at Tirunelveli after being in exile for some years after being wrongly accused of bribery by corrupt politicians. In an early scene in the film, he eats idli with beer and performs some drunken antics, which had a negative impact on the viewing public. At the outset, he pretends to be a corrupt cop by accepting bribes from the very influential Annachi. Later Saamy starts to rebel against him and the rest is about how he succeeds in overcoming the corrupt politicians. Aarusaamy's father who wanted to become a cop was unable to become due to corruption and takes care of agriculture for his living. But he wanted to make his son a cop. Vikram too passes the IPS examinations in merit, but was asked for bribe. His father mortgages his properties and makes him get the desired job. Being an honest cop, Aarusaamy is honoured with transfers all over Tamil Nadu due to political pressure. Finally, in Trichy, he is accused of bribery by a politician and he gets suspended. It takes him six months to prove himself and he is posted in Tirunelveli now. In Tirunelveli, he adapts a new policy of adjusting with the local goons so that he can serve the people in an effective way. Perumal Pichai, is an underworld don who has the total control of Southern Tamil Nadu, both in politics as well as rowdyism but he is less known in the media. He bribes Aarusaamy so that he will not disturb his business because both Perumal Pichai and Aarusaamy belongs to his caste. Saamy also accepts it but requests him to make some changes which he in turn accepts. As a result, the city is under the control of Law and Order. He is always accompanied by &quot;Punctuality&quot; Paramasivam, who is an inspector. Saamy falls in love with a college-going Brahmin girl, Bhuvana and they get engaged. Bhuvana's father, is a straightforward government officer who never got bribe and leads a noble life. Saamy and Bhuvana meet each other when Saamy goes in search of a home for rent to Bhuvana's home. Bhuvana misinterprets Saamy and Paramasivam as thieves and locks them in a room.\n\n\n[center][color=red][size=5][font=&quot;Comic Sans MS&quot;]Torrent Info:[/font][/size][/color]\n\n\n[color=red][b]General[/b][/color]\nFile size                                : 669 MiB\nDuration                                 : 2h 30mn\nOverall bit rate                         : 621 Kbps\nMovie name                               : Policewala Gunda 3 (2015) Hindi Dubbed 480p x264 670MB TeamTolly\n\n\n[color=red][b]Video[/b][/color]\nID                                       : 1\nFormat                                   : AVC\nFormat/Info                              : Advanced Video Codec\nFormat profile                           : Baseline@L3\nFormat settings, CABAC                   : No\nFormat settings, ReFrames                : 1 frame\nCodec ID                                 : avc1\nCodec ID/Info                            : Advanced Video Coding\nDuration                                 : 2h 30mn\nBit rate                                 : 523 Kbps\nMaximum bit rate                         : 2 398 Kbps\nWidth                                    : 640 pixels\nHeight                                   : 360 pixels\nDisplay aspect ratio                     : 16:9\nFrame rate mode                          : Constant\nFrame rate                               : 25.000 fps\nColor space                              : YUV\nChroma subsampling                       : 4:2:0\nBit depth                                : 8 bits\nScan type                                : Progressive\nBits/(Pixel*Frame)                       : 0.091\nStream size                              : 563 MiB (84%)\n\n\n[color=red][b]Audio[/b][/color]\nID                                       : 2\nFormat                                   : AAC\nFormat/Info                              : Advanced Audio Codec\nFormat profile                           : LC\nCodec ID                                 : 40\nDuration                                 : 2h 30mn\nBit rate mode                            : Variable\nBit rate                                 : 96.0 Kbps\nMaximum bit rate                         : 104 Kbps\nChannel(s)                               : 2 channels\nChannel positions                        : Front: L R\nSampling rate                            : 44.1 KHz\nCompression mode                         : Lossy\nStream size                              : 103 MiB (15%)\n\n\n\n\n[img]http://img69.imageshack.us/img69/4159/odx.gif[/img]\n\n[img]http://img29.imageshack.us/img29/1281/logo1il.png[/img]\n\n\n\n[img]http://s25.postimg.org/rb7pajftr/Police_Wala_Gunda_1.jpg[/img]\n\n[img]http://s25.postimg.org/bsa9df7j3/Police_Wala_Gunda_2.jpg[/img]\n\n[img]http://s25.postimg.org/p09n6d527/Police_Wala_Gunda_3.jpg[/img]\n\n[img]http://s25.postimg.org/xu0jngs0v/Police_Wala_Gunda_4.jpg[/img]\n\n[img]http://s25.postimg.org/fam99t8f3/Police_Wala_Gunda_5.jpg[/img]\n\n[img]http://s25.postimg.org/w0xmz56u7/Police_Wala_Gunda_6.jpg[/img]\n\n[img]http://s25.postimg.org/taob1ya5b/Police_Wala_Gunda_7.jpg[/img]\n\n[img]http://s25.postimg.org/7pj8ecden/Police_Wala_Gunda_8.jpg[/img]\n[/center]\n\n\n\n[img]http://imageshack.com/a/img15/707/7hm.gif[/img]","torrent":{"xt":"urn:btih:63e522bbf43d499cf70b3174913c45fb2b5579d0","amp;dn":"Policewala+Gunda+3+%282015%29+Hindi+Dubbed+480p+x264+670MB+TeamTolly","amp;tr":["udp%3A%2F%2Ftracker.openbittorrent.com%3A80","udp%3A%2F%2Fopen.demonii.com%3A1337","udp%3A%2F%2Ftracker.coppersurfer.tk%3A6969","udp%3A%2F%2Fexodus.desync.com%3A6969"],"infoHash":"63e522bbf43d499cf70b3174913c45fb2b5579d0","infoHashBuffer":{"type":"Buffer","data":[99,229,34,187,244,61,73,156,247,11,49,116,145,60,69,251,43,85,121,208]},"announce":[],"urlList":[]}}